<svg width="423" height="431" xmlns="http://www.w3.org/2000/svg">

 <g label="Layer 1" id="imagebot_2">
  <path transform="matrix(2.5551 0 0 2.5551 -881.688 -114.101)" label="Layer 1" stroke="#000000" stroke-width="0.41822" fill="#ffffff" d="M432.41,93.068C448.75,95.816 454.75,103.8 456.02,118.5C469.57,118.97 480.42,129.43 480.42,142.25C479.51,157.58 465.09,168.8 448.76,165.28C443.98,171.37 435.47,175.9 425.08,177.08C410.48,178.73 396.63,173.25 390.47,164.26C376.83,173.11 366.43,171.23 354.29,161.68C345.07,151.72 346.21,136.77 356.84,128.34C359.84,125.96 363.28,124.37 366.87,123.51C366.08,117.55 367.72,111.28 371.99,106.1C381.85,95.77 397.91,93.233 409.53,102.84C415.01,96.146 423.37,92.567 432.41,93.068z" id="imagebot_9"/>
  <path transform="matrix(2.5551 0 0 2.5551 -881.688 -114.101)" label="Layer 1" stroke="#000000" stroke-width="0.43489" fill="#ffffff" d="M403.32,149.73C410.17,165.36 419.67,169.05 434.71,166.02C438.58,179.5 451.77,187.35 464.61,183.58C479.74,178.17 487.37,160.37 479.75,144.97C484.65,138.38 487.06,128.49 485.63,117.69C483.63,102.52 474.67,90.197 464.12,86.64C469.57,70.324 465.08,60.413 452.46,51.002C440.17,44.656 425.49,50.189 419.71,63.353C418.08,67.071 417.34,71 417.39,74.867C411.22,75.821 405.35,79.314 401.23,85.125C393.35,98.079 394.84,114.98 407.37,123.84C402.04,131.33 400.55,140.79 403.32,149.73z" id="imagebot_7"/>
  <path transform="matrix(2.5551 0 0 2.5551 -881.688 -114.101)" label="Layer 1" stroke="#000000" stroke-width="0.44918" fill="#ffffff" d="M417.55,120.35C400.15,123.32 393.77,131.98 392.41,147.9C377.99,148.42 366.45,159.75 366.45,173.64C367.42,190.26 382.76,202.42 400.15,198.6C405.23,205.21 414.29,210.12 425.35,211.39C440.89,213.18 455.63,207.25 462.18,197.5C476.7,207.1 487.77,205.06 500.7,194.71C510.51,183.91 509.29,167.71 497.98,158.58C494.79,156 491.13,154.27 487.3,153.34C488.14,146.88 486.39,140.09 481.85,134.48C471.36,123.27 454.26,120.53 441.9,130.94C436.06,123.68 427.16,119.8 417.55,120.35z" id="imagebot_6"/>
  <title>Layer 1</title>
 </g>
 <metadata>image/svg+xmlOpenclipartSimple Clouds2008-09-26T07:52:55Simple greyscale clouds, symbolic or as an icon.https://openclipart.org/detail/19440/simple-clouds-by-wirelizardwirelizardcartooncloudcloudsoutlinesimplestylized</metadata>
</svg>